<svg xmlns="http://www.w3.org/2000/svg" viewBox="0 0 200 200" width="200" height="200">
  <!-- Digital Services Icon for Saudi Context -->
  
  <!-- Background Circle -->
  <circle cx="100" cy="100" r="90" fill="#165F4C" opacity="0.1" />
  
  <!-- Main Device - Smartphone -->
  <rect x="70" y="50" width="60" height="100" rx="5" fill="#05B583" />
  <rect x="75" y="60" width="50" height="80" fill="#FFFFFF" />
  
  <!-- Screen Elements -->
  <rect x="85" y="70" width="30" height="10" rx="2" fill="#165F4C" opacity="0.7" />
  <rect x="85" y="85" width="30" height="5" rx="2" fill="#165F4C" opacity="0.5" />
  <rect x="85" y="95" width="30" height="5" rx="2" fill="#165F4C" opacity="0.5" />
  <rect x="85" y="105" width="30" height="5" rx="2" fill="#165F4C" opacity="0.5" />
  <rect x="85" y="120" width="15" height="10" rx="5" fill="#E3A642" />
  
  <!-- Home Button -->
  <circle cx="100" cy="145" r="5" stroke="#05B583" stroke-width="1" fill="none" />
  
  <!-- Digital Icons floating around -->
  <g transform="translate(100, 100)">
    <!-- Document Icon -->
    <g transform="translate(-50, -60) scale(0.7)">
      <rect x="-10" y="-15" width="20" height="25" fill="#FFFFFF" stroke="#165F4C" stroke-width="1" />
      <line x1="-5" y1="-5" x2="5" y2="-5" stroke="#165F4C" stroke-width="1" />
      <line x1="-5" y1="0" x2="5" y2="0" stroke="#165F4C" stroke-width="1" />
      <line x1="-5" y1="5" x2="5" y2="5" stroke="#165F4C" stroke-width="1" />
    </g>
    
    <!-- Cloud Icon -->
    <g transform="translate(50, -60) scale(0.7)">
      <path d="M-15,5 C-15,-5 -5,-10 0,-5 C5,-15 20,-10 20,0 C25,0 25,10 15,10 L-10,10 C-20,10 -20,0 -15,5 Z" fill="#FFFFFF" stroke="#165F4C" stroke-width="1" />
    </g>
    
    <!-- Settings Gear -->
    <g transform="translate(-50, 60) scale(0.7)">
      <circle cx="0" cy="0" r="10" fill="#FFFFFF" stroke="#165F4C" stroke-width="1" />
      <path d="M0,-15 L0,-10 M0,10 L0,15 M-15,0 L-10,0 M10,0 L15,0 M-10,-10 L-7,-7 M-10,10 L-7,7 M10,-10 L7,-7 M10,10 L7,7" stroke="#165F4C" stroke-width="2" />
      <circle cx="0" cy="0" r="3" fill="#E3A642" />
    </g>
    
    <!-- Security Shield -->
    <g transform="translate(50, 60) scale(0.7)">
      <path d="M0,-15 L-10,-5 L-10,5 C-10,15 0,20 0,20 C0,20 10,15 10,5 L10,-5 Z" fill="#FFFFFF" stroke="#165F4C" stroke-width="1" />
      <path d="M-5,0 L-2,5 L5,-5" stroke="#05B583" stroke-width="2" fill="none" />
    </g>
  </g>
  
  <!-- Connection Lines -->
  <g stroke="#05B583" stroke-width="1" stroke-dasharray="3,3" opacity="0.7">
    <line x1="100" y1="100" x2="50" y2="40" />
    <line x1="100" y1="100" x2="150" y2="40" />
    <line x1="100" y1="100" x2="50" y2="160" />
    <line x1="100" y1="100" x2="150" y2="160" />
  </g>
  
  <!-- Title -->
  <text x="100" y="180" font-family="Arial, sans-serif" font-size="12" text-anchor="middle" fill="#165F4C" font-weight="bold">الخدمات الرقمية</text>
</svg>
